{
  "accessors": [
    {
      "bufferView": 2,
      "componentType": 5126,
      "count": 15881,
      "max": [
        6.7275300025939941,
        2.3334898948669434,
        8.8989200592041016
      ],
      "min": [
        -7.9399700164794922,
        -2.3334898948669434,
        -9.2184000015258789
      ],
      "type": "VEC3"
    },
    {
      "bufferView": 2,
      "byteOffset": 190572,
      "componentType": 5126,
      "count": 15881,
      "max": [
        1,
        1,
        1
      ],
      "min": [
        -1,
        -1,
        -1
      ],
      "type": "VEC3"
    },
    {
      "bufferView": 3,
      "componentType": 5126,
      "count": 15881,
      "max": [
        1,
        1,
        1,
        1
      ],
      "min": [
        -0.99041581153869629,
        -1,
        -1,
        -1
      ],
      "type": "VEC4"
    },
    {
      "bufferView": 1,
      "componentType": 5126,
      "count": 15881,
      "max": [
        0.99800801277160645,
        0.93233901262283325
      ],
      "min": [
        0.001992030069231987,
        0.0018609600374475121
      ],
      "type": "VEC2"
    },
    {
      "bufferView": 0,
      "componentType": 5125,
      "count": 78600,
      "max": [
        15880
      ],
      "min": [
        0
      ],
      "type": "SCALAR"
    }
  ],
  "asset": {
    "extras": {
      "author": "Sachin jamwal (https://sketchfab.com/jamwalsachin632)",
      "license": "CC-BY-4.0 (http://creativecommons.org/licenses/by/4.0/)",
      "source": "https://sketchfab.com/3d-models/water-tap-2332e10e6745412aa9499524b656dfd6",
      "title": "Water tap"
    },
    "generator": "Sketchfab-7.14.0",
    "version": "2.0"
  },
  "bufferViews": [
    {
      "buffer": 0,
      "byteLength": 314400,
      "byteOffset": 0,
      "name": "floatBufferViews",
      "target": 34963
    },
    {
      "buffer": 0,
      "byteLength": 127048,
      "byteOffset": 314400,
      "byteStride": 8,
      "name": "floatBufferViews",
      "target": 34962
    },
    {
      "buffer": 0,
      "byteLength": 381144,
      "byteOffset": 441448,
      "byteStride": 12,
      "name": "floatBufferViews",
      "target": 34962
    },
    {
      "buffer": 0,
      "byteLength": 254096,
      "byteOffset": 822592,
      "byteStride": 16,
      "name": "floatBufferViews",
      "target": 34962
    }
  ],
  "buffers": [
    {
      "byteLength": 1076688,
      "uri": "scene.bin"
    }
  ],
  "images": [
    {
      "uri": "textures/lambert8_baseColor.jpeg"
    },
    {
      "uri": "textures/lambert8_metallicRoughness.png"
    },
    {
      "uri": "textures/lambert8_normal.png"
    }
  ],
  "materials": [
    {
      "doubleSided": true,
      "name": "lambert8",
      "normalTexture": {
        "index": 2,
        "scale": 1,
        "texCoord": 0
      },
      "pbrMetallicRoughness": {
        "baseColorFactor": [
          1,
          1,
          1,
          1
        ],
        "baseColorTexture": {
          "index": 0,
          "texCoord": 0
        },
        "metallicFactor": 1,
        "metallicRoughnessTexture": {
          "index": 1,
          "texCoord": 0
        },
        "roughnessFactor": 1
      }
    }
  ],
  "meshes": [
    {
      "primitives": [
        {
          "attributes": {
            "NORMAL": 1,
            "POSITION": 0,
            "TANGENT": 2,
            "TEXCOORD_0": 3
          },
          "indices": 4,
          "material": 0,
          "mode": 4
        }
      ]
    }
  ],
  "nodes": [
    {
      "children": [
        1
      ],
      "name": "RootNode (gltf orientation matrix)",
      "rotation": [
        -0.70710678118654746,
        -0,
        -0,
        0.70710678118654757
      ]
    },
    {
      "children": [
        2
      ],
      "name": "RootNode (model correction matrix)"
    },
    {
      "children": [
        3
      ],
      "name": "Untitled.obj.cleaner.materialmerger.gles"
    },
    {
      "mesh": 0,
      "name": ""
    }
  ],
  "samplers": [
    {
      "magFilter": 9729,
      "minFilter": 9987,
      "wrapS": 10497,
      "wrapT": 10497
    }
  ],
  "scene": 0,
  "scenes": [
    {
      "name": "OSG_Scene",
      "nodes": [
        0
      ]
    }
  ],
  "textures": [
    {
      "sampler": 0,
      "source": 0
    },
    {
      "sampler": 0,
      "source": 1
    },
    {
      "sampler": 0,
      "source": 2
    }
  ]
}

